HIERARCHY
ROOT Hips
{
	OFFSET 0.000000 0.000000 0.000000 
	CHANNELS 6 Xposition Yposition Zposition Yrotation Zrotation Xrotation 
	JOINT Lumbar
	{
		OFFSET 0.000000 0.000000 0.000000 
		CHANNELS 3 Zrotation Xrotation Yrotation
		JOINT Neck
		{
			OFFSET 0.000000 0.445665 0.000000 
			CHANNELS 3 Zrotation Xrotation Yrotation
			End Site
			{
				OFFSET 0.000000 0.227535 0.000000 
			}
		}
		JOINT RightShoulder
		{
			OFFSET 0.019635 0.377685 0.194865 
			CHANNELS 3 Zrotation Xrotation Yrotation
			JOINT RightElbow
			{
				OFFSET 0.000000 -0.243375 0.000000 
				CHANNELS 2 Zrotation Yrotation
				JOINT RightWrist
				{
					OFFSET 0.000000 -0.264825 0.000000 
					CHANNELS 2 Zrotation Xrotation
					End Site
					{
						OFFSET 0.006600 -0.176220 0.000990 
					}
				}
			}
		}
		JOINT LeftShoulder
		{
			OFFSET 0.019635 0.377685 -0.194865 
			CHANNELS 3 Zrotation Xrotation Yrotation
			JOINT LeftElbow
			{
				OFFSET 0.000000 -0.243375 0.000000 
				CHANNELS 2 Zrotation Yrotation
				JOINT LeftWrist
				{
					OFFSET 0.000000 -0.264825 0.000000 
					CHANNELS 2 Zrotation Xrotation
					End Site
					{
						OFFSET 0.006600 -0.176220 -0.000990 
					}
				}
			}
		}
	}
	JOINT RightHip
	{
		OFFSET 0.052140 -0.069960 0.075570 
		CHANNELS 3 Zrotation Xrotation Yrotation
		JOINT RightKnee
		{
			OFFSET 0.000000 -0.402270 0.000000 
			CHANNELS 1 Zrotation
			JOINT RightAnkle
			{
				OFFSET 0.000000 -0.404085 0.000000 
				CHANNELS 3 Zrotation Xrotation Yrotation
				End Site
				{
					OFFSET 0.204105 -0.089430 0.008415 
				}
			}
		}
	}
	JOINT LeftHip
	{
		OFFSET 0.052140 -0.069960 -0.075570 
		CHANNELS 3 Zrotation Xrotation Yrotation
		JOINT LeftKnee
		{
			OFFSET 0.000000 -0.402270 0.000000 
			CHANNELS 1 Zrotation
			JOINT LeftAnkle
			{
				OFFSET 0.000000 -0.404085 0.000000 
				CHANNELS 3 Zrotation Xrotation Yrotation
				End Site
				{
					OFFSET 0.204105 -0.089430 -0.008415 
				}
			}
		}
	}
}
MOTION
Frames: 22
Frame Time: 0.02
0.00107 0.00056 0.00025 29.55898 -12.80188 -3.60694 37.75108 0.16087 -12.38706 -15.06988 2.40036 -1.15436 -18.24877 -7.9795 1.61169 130.44656 79.79248 -3.42015 3.99683 -25.12475 4.71733 13.49824 31.2564 -86.9004 4.11065 7.81988 25.96113 -3.60985 -0.02249 -19.87646 -6.91301 -3.25215 -3.84038 28.25874 5.87094 2.98485 -24.38568 -6.7793 1.86308 3.17625
-0.00085 0.0001 -0.00042 29.35007 -12.79507 -3.64331 37.55558 0.16773 -12.54683 -15.0683 2.41959 -1.15513 -18.84553 -7.47133 2.2253 130.74399 79.98413 -3.32623 3.68034 -25.0272 4.60896 13.86513 31.12307 -87.12503 4.06165 6.1221 26.09766 -3.71064 -0.38213 -19.88627 -6.90855 -3.19963 -3.81302 28.34079 5.86976 3.16619 -24.43232 -6.7781 1.8676 3.17606
-0.00276 -0.00036 -0.00109 29.14136 -12.78831 -3.67949 37.36042 0.17459 -12.70608 -15.06666 2.43872 -1.1559 -19.44017 -6.96516 2.83721 131.03987 80.17519 -3.23255 3.36476 -24.92957 4.50129 14.23033 30.98996 -87.35219 4.01361 4.43072 26.2341 -3.81136 -0.74108 -19.89607 -6.90411 -3.14719 -3.7857 28.42286 5.86849 3.34728 -24.47893 -6.7769 1.8721 3.17587
-0.00467 -0.00082 -0.00176 28.93303 -12.78151 -3.71574 37.16549 0.18143 -12.86536 -15.0651 2.45788 -1.15667 -20.03503 -6.4586 3.44897 131.3364 80.36624 -3.13892 3.04926 -24.83228 4.39329 14.59603 30.85701 -87.5769 3.96495 2.73835 26.37025 -3.91187 -1.09967 -19.90585 -6.89967 -3.09482 -3.75842 28.50469 5.8673 3.5281 -24.52544 -6.7757 1.87661 3.17568
-0.00658 -0.00128 -0.00243 28.72466 -12.77468 -3.75221 36.9703 0.18826 -13.02518 -15.06358 2.47716 -1.15744 -20.63214 -5.94994 4.06231 131.63438 80.55789 -3.04504 2.73279 -24.73517 4.28448 14.96356 30.72393 -87.79717 3.91487 1.03915 26.50642 -4.01239 -1.45883 -19.91564 -6.89521 -3.04238 -3.7311 28.58643 5.86623 3.70908 -24.57195 -6.77449 1.88112 3.1755
-0.0085 -0.00174 -0.0031 28.51524 -12.76809 -3.78777 36.77519 0.19519 -13.1832 -15.06164 2.496 -1.15822 -21.22159 -5.44908 4.67115 131.92566 80.74772 -2.9518 2.41907 -24.63644 4.17922 15.3238 30.59074 -88.03841 3.87105 -0.63567 26.64344 -4.1135 -1.8173 -19.92546 -6.89082 -2.98994 -3.7038 28.66923 5.86455 3.89042 -24.61875 -6.77332 1.88559 3.17531
-0.0104 -0.0022 -0.00377 28.30817 -12.76094 -3.82511 36.58021 0.20189 -13.3447 -15.06069 2.51565 -1.15898 -21.82566 -4.9329 5.28847 132.23092 80.94096 -2.8574 2.10034 -24.5412 4.06688 15.69844 30.45791 -88.23906 3.8151 -2.35763 26.77846 -4.2133 -2.17672 -19.93519 -6.88629 -2.93758 -3.6765 28.74969 5.86409 4.07074 -24.6649 -6.77208 1.89016 3.17513
-0.01231 -0.00266 -0.00444 28.09893 -12.75445 -3.86086 36.38496 0.20884 -13.50293 -15.05859 2.53467 -1.15977 -22.41653 -4.43119 5.89778 132.52181 81.1311 -2.76404 1.78594 -24.44251 3.96118 16.05958 30.32477 -88.47372 3.76957 -4.03629 26.91557 -4.31433 -2.53534 -19.94506 -6.88189 -2.88513 -3.6492 28.83252 5.86254 4.25216 -24.71167 -6.7709 1.89462 3.17493
-0.01424 -0.00312 -0.00512 27.88691 -12.74819 -3.89445 36.18984 0.21598 -13.65744 -15.05601 2.55245 -1.16054 -22.99032 -3.94568 6.49837 132.80099 81.31738 -2.67201 1.47786 -24.34041 3.86318 16.40518 30.19106 -88.7642 3.73996 -5.66184 27.05438 -4.41687 -2.89291 -19.95486 -6.87763 -2.83259 -3.62189 28.91747 5.85947 4.43445 -24.75917 -6.76979 1.89899 3.17473
-0.0161 -0.00356 -0.00577 27.69049 -12.73889 -3.93981 35.99537 0.22164 -13.83421 -15.05898 2.57596 -1.16122 -23.65957 -3.36249 7.15235 133.16516 81.52566 -2.57252 1.1365 -24.26032 3.71961 16.84306 30.06005 -88.77643 3.62834 -7.59242 27.18084 -4.51074 -3.25632 -19.96435 -6.87255 -2.78061 -3.59459 28.98791 5.86458 4.6103 -24.80237 -6.76826 1.90404 3.1746
-0.0181 -0.00406 -0.00647 27.46145 -12.73709 -3.96078 35.79867 0.23067 -13.96347 -15.04846 2.58828 -1.16225 -24.1292 -2.98822 7.69156 133.33881 81.68762 -2.48866 0.86338 -24.13235 3.67294 17.08443 29.92377 -89.34793 3.6835 -8.87981 27.33497 -4.62284 -3.60747 -19.97494 -6.86921 -2.72745 -3.56728 29.0904 5.85283 4.8006 -24.85471 -6.76763 1.90755 3.17429
-0.02044 -0.00469 -0.00731 27.13951 -12.74748 -3.91068 35.6026 0.24717 -13.96559 -15.01468 2.56255 -1.16301 -24.03028 -3.16812 7.92928 133.07317 81.72135 -2.44778 0.79663 -23.88323 3.8892 16.79572 29.76977 -91.7052 4.2545 -8.38275 27.55323 -4.78637 -3.92581 -19.986 -6.8704 -2.67099 -3.53989 29.27043 5.79128 5.02407 -24.93171 -6.76946 1.90765 3.1738
-0.02295 -0.00537 -0.00819 26.7856 -12.7671 -3.83705 35.40302 0.26738 -13.91942 -14.96453 2.52714 -1.16434 -23.73429 -3.56024 8.04845 132.59859 81.70938 -2.42177 0.7956 -23.58402 4.20352 16.30781 29.61147 -94.58217 4.98362 -7.24421 27.80184 -4.96805 -4.23277 -19.99936 -6.87334 -2.61344 -3.51253 29.48481 5.71367 5.26314 -25.01793 -6.7722 1.90605 3.17306
-0.02542 -0.00604 -0.00904 26.44827 -12.78776 -3.77662 35.20061 0.28709 -13.89319 -14.91319 2.5007 -1.1662 -23.54266 -3.86915 8.21415 132.16783 81.71828 -2.38994 0.75109 -23.30119 4.47467 15.90525 29.45676 -97.05148 5.60053 -6.41098 28.04381 -5.14039 -4.543 -20.01244 -6.87572 -2.55629 -3.48512 29.68999 5.64542 5.49947 -25.10024 -6.77453 1.90469 3.1722
-0.02772 -0.00669 -0.00994 26.10148 -12.7857 -3.70475 35.01686 0.30189 -13.87524 -14.89931 2.45413 -1.16475 -23.29012 -4.1272 8.41397 131.96135 81.72417 -2.35752 0.76114 -23.04568 4.73935 15.52479 29.29353 -100.22675 6.38216 -5.51514 28.25415 -5.31701 -4.85674 -20.01938 -6.87734 -2.49913 -3.45766 29.86723 5.56752 5.71801 -25.18149 -6.77684 1.90559 3.17234
-0.0304 -0.00738 -0.01074 25.76775 -12.83397 -3.65216 34.79343 0.32766 -13.82873 -14.8022 2.4482 -1.17031 -23.11528 -4.53577 8.51043 131.22713 81.72862 -2.32569 0.67695 -22.72083 5.04172 15.05026 29.14905 -102.07866 6.86563 -4.60157 28.53943 -5.4895 -5.16611 -20.04329 -6.88067 -2.44226 -3.43057 30.11198 5.50706 5.97664 -25.26696 -6.77945 1.90135 3.17032
-0.03411 -0.00819 -0.0113 25.47102 -13.01113 -3.64972 34.46171 0.38377 -13.7143 -14.49161 2.54775 -1.19546 -23.22393 -5.35648 8.38415 129.17703 81.71241 -2.32931 0.28302 -22.22151 5.41577 14.37099 29.0388 -99.94018 6.42169 -3.76452 29.00598 -5.64174 -5.41554 -20.08234 -6.89115 -2.38207 -3.40255 30.52312 5.48857 6.34555 -25.36315 -6.78239 1.88371 3.16267
-0.0382 -0.00904 -0.01174 25.19051 -13.23945 -3.6691 34.09056 0.45053 -13.57304 -14.09621 2.68983 -1.22758 -23.41309 -6.31235 8.14992 126.58302 81.70066 -2.3273 -0.20199 -21.65312 5.82603 13.60181 28.95022 -96.48969 5.6838 -2.93767 29.5488 -5.78992 -5.66862 -20.14411 -6.90294 -2.32319 -3.37535 31.00216 5.48976 6.7522 -25.46283 -6.78564 1.861 3.15287
-0.04212 -0.00987 -0.01219 24.90624 -13.4503 -3.68439 33.73658 0.51193 -13.44457 -13.73069 2.81895 -1.2563 -23.55273 -7.17438 7.94531 124.183 81.70631 -2.3017 -0.62319 -21.11344 6.22503 12.87104 28.86496 -93.77821 5.12405 -2.12726 30.07055 -5.94301 -5.95557 -20.21609 -6.91208 -2.26638 -3.34896 31.45903 5.489 7.14118 -25.56028 -6.78896 1.84023 3.14385
-0.04605 -0.01069 -0.01284 24.60282 -13.63969 -3.6745 33.38371 0.57602 -13.3116 -13.39837 2.92256 -1.28609 -23.74286 -8.18024 7.82589 122.01351 81.63201 -2.38179 -1.13601 -20.58394 6.60502 12.14781 28.72735 -90.48687 4.38412 -1.20628 30.54211 -6.08423 -6.09958 -20.2019 -6.92927 -2.19763 -3.31726 31.88459 5.45951 7.5388 -25.66155 -6.79151 1.82049 3.13546
-0.05002 -0.01155 -0.01305 24.34706 -13.88251 -3.72227 33.02164 0.63649 -13.18264 -12.98047 3.08739 -1.3152 -23.84601 -8.9164 7.49581 119.22082 81.72129 -2.24675 -1.48139 -20.01673 7.03254 11.38493 28.69971 -88.07907 3.9446 -0.52538 31.12822 -6.24841 -6.53297 -20.37198 -6.93085 -2.15489 -3.29725 32.38579 5.49304 7.91976 -25.7546 -6.79563 1.79797 3.1255
-0.05424 -0.01252 -0.01205 24.18855 -14.28881 -3.92607 32.62366 0.68855 -13.06695 -12.31684 3.42953 -1.34169 -23.71914 -8.86944 6.67315 114.98112 82.29378 -1.46726 -1.33404 -19.36959 7.57621 10.58181 29.00876 -88.47931 4.43136 -0.51686 32.07751 -6.48178 -7.84536 -21.04852 -6.88122 -2.17634 -3.30549 33.12454 5.71107 8.31136 -25.83268 -6.8047 1.76413 3.10946
